<svg xmlns="http://www.w3.org/2000/svg" width="900" height="1200" viewBox="0 0 900 1200" role="img" aria-labelledby="title desc">
<title id="title">AZATHOTH</title><desc id="desc">Original abstract editorial plate for Myth Atlas</desc>
<defs><filter id="grain"><feTurbulence baseFrequency=".74" numOctaves="4" seed="136" type="fractalNoise"/><feColorMatrix type="saturate" values="0"/><feComponentTransfer><feFuncA type="table" tableValues="0 .16"/></feComponentTransfer></filter><radialGradient id="halo"><stop offset="0" stop-color="#c49a68" stop-opacity=".17"/><stop offset="1" stop-color="#c49a68" stop-opacity="0"/></radialGradient></defs>
<rect width="900" height="1200" fill="#090b0e"/><rect x="36" y="36" width="828" height="1128" rx="2" fill="#101419" stroke="#394049" stroke-width="2"/><rect x="55" y="55" width="790" height="1090" fill="none" stroke="#c49a68" stroke-opacity=".28"/><rect width="900" height="1200" filter="url(#grain)" opacity=".75"/><circle cx="450" cy="500" r="370" fill="url(#halo)"/>
<g opacity=".22" stroke="#c49a68" fill="none"><circle cx="450" cy="500" r="300"/><circle cx="450" cy="500" r="248"/><path d="M128 500h644M450 178v644" stroke-dasharray="5 12"/></g>
<g><g stroke="#c49a68" stroke-width="8" stroke-linecap="round" stroke-linejoin="round" fill="none"><path d="M450 260c34 82 85 91 142 43-30 89 8 124 91 127-73 50-70 101-5 158-91-15-118 27-104 113-68-61-112-42-143 38-34-82-85-91-142-43 30-89-8-124-91-127 73-50 70-101 5-158 91 15 118-27 104-113 68 61 112 42 143-38Z"/><circle cx="450" cy="500" r="54"/><path d="M450 301v137M559 344l-74 114M620 445l-126 38M606 565l-116-44M522 666l-51-123M401 674l33-131M307 598l104-73M279 482l132 9M337 374l91 78" stroke="#c49a68" stroke-width="3" stroke-linecap="round" fill="none" opacity=".65"/></g></g>
<path d="M92 94h95M713 94h95M92 1106h95M713 1106h95" stroke="#c3a567" stroke-width="5"/>
<text x="92" y="139" fill="#c3a567" font-size="18" font-family="monospace" letter-spacing="4">ARCANA MUNDI · THE MODERN MYTHIC AGE</text>
<text x="92" y="1026" fill="#c49a68" font-size="42" font-family="Georgia,serif" letter-spacing="3">AZATHOTH</text>
<text x="92" y="1070" fill="#818992" font-size="15" font-family="monospace" letter-spacing="3">PLATE AZATHOTH · MYTH ATLAS EDITORIAL</text>
<text x="808" y="139" text-anchor="end" fill="#818992" font-size="15" font-family="monospace">CC BY 4.0</text>
</svg>