<svg xmlns="http://www.w3.org/2000/svg" width="900" height="1200" viewBox="0 0 900 1200" role="img" aria-labelledby="title desc">
<title id="title">SCP-173</title><desc id="desc">Original abstract editorial plate for Myth Atlas</desc>
<defs><filter id="grain"><feTurbulence baseFrequency=".74" numOctaves="4" seed="119" type="fractalNoise"/><feColorMatrix type="saturate" values="0"/><feComponentTransfer><feFuncA type="table" tableValues="0 .16"/></feComponentTransfer></filter><radialGradient id="halo"><stop offset="0" stop-color="#a2947f" stop-opacity=".17"/><stop offset="1" stop-color="#a2947f" stop-opacity="0"/></radialGradient></defs>
<rect width="900" height="1200" fill="#090b0e"/><rect x="36" y="36" width="828" height="1128" rx="2" fill="#101419" stroke="#394049" stroke-width="2"/><rect x="55" y="55" width="790" height="1090" fill="none" stroke="#a2947f" stroke-opacity=".28"/><rect width="900" height="1200" filter="url(#grain)" opacity=".75"/><circle cx="450" cy="500" r="370" fill="url(#halo)"/>
<g opacity=".22" stroke="#a2947f" fill="none"><circle cx="450" cy="500" r="300"/><circle cx="450" cy="500" r="248"/><path d="M128 500h644M450 178v644" stroke-dasharray="5 12"/></g>
<g><path d="M330 695 278 344l172-79 172 79-52 351H330Z" stroke="#a2947f" stroke-width="8" stroke-linecap="square" stroke-linejoin="round" fill="none"/><path d="M339 391l222 208M561 391 339 599M383 319l44 376M517 319l-44 376" stroke="#a2947f" stroke-width="3" fill="none" opacity=".6"/><circle cx="450" cy="488" r="42" stroke="#a2947f" stroke-width="8" stroke-linecap="square" stroke-linejoin="round" fill="none"/><path d="M250 744h400" stroke="#a2947f" stroke-width="8" stroke-linecap="square" stroke-linejoin="round" fill="none"/></g>
<path d="M92 94h95M713 94h95M92 1106h95M713 1106h95" stroke="#b94a45" stroke-width="5"/>
<text x="92" y="139" fill="#b94a45" font-size="18" font-family="monospace" letter-spacing="4">ARCANA MUNDI · CONTAINMENT ARCHIVE</text>
<text x="92" y="1026" fill="#a2947f" font-size="42" font-family="Georgia,serif" letter-spacing="3">SCP-173</text>
<text x="92" y="1070" fill="#818992" font-size="15" font-family="monospace" letter-spacing="3">PLATE SCP-173 · MYTH ATLAS EDITORIAL</text>
<text x="808" y="139" text-anchor="end" fill="#818992" font-size="15" font-family="monospace">CC BY-SA 3.0</text>
</svg>