<svg xmlns="http://www.w3.org/2000/svg" width="900" height="1200" viewBox="0 0 900 1200" role="img" aria-labelledby="title desc">
<title id="title">SCP-682</title><desc id="desc">Original abstract editorial plate for Myth Atlas</desc>
<defs><filter id="grain"><feTurbulence baseFrequency=".74" numOctaves="4" seed="119" type="fractalNoise"/><feColorMatrix type="saturate" values="0"/><feComponentTransfer><feFuncA type="table" tableValues="0 .16"/></feComponentTransfer></filter><radialGradient id="halo"><stop offset="0" stop-color="#87936f" stop-opacity=".17"/><stop offset="1" stop-color="#87936f" stop-opacity="0"/></radialGradient></defs>
<rect width="900" height="1200" fill="#090b0e"/><rect x="36" y="36" width="828" height="1128" rx="2" fill="#101419" stroke="#394049" stroke-width="2"/><rect x="55" y="55" width="790" height="1090" fill="none" stroke="#87936f" stroke-opacity=".28"/><rect width="900" height="1200" filter="url(#grain)" opacity=".75"/><circle cx="450" cy="500" r="370" fill="url(#halo)"/>
<g opacity=".22" stroke="#87936f" fill="none"><circle cx="450" cy="500" r="300"/><circle cx="450" cy="500" r="248"/><path d="M128 500h644M450 178v644" stroke-dasharray="5 12"/></g>
<g><path d="M241 568c72-155 270-211 417-105 83 60 61 184-42 205-88 18-183-16-259-59l-116-41Z" stroke="#87936f" stroke-width="8" stroke-linecap="square" stroke-linejoin="round" fill="none"/><path d="M616 463l83-77-4 129M308 548l-88-85M362 610l-72 102M554 653l68 75" stroke="#87936f" stroke-width="8" stroke-linecap="square" stroke-linejoin="round" fill="none"/><circle cx="592" cy="506" r="14" fill="#87936f"/><path d="M353 489l36 32 38-42 41 31 39-43" stroke="#87936f" stroke-width="3" fill="none" opacity=".6"/></g>
<path d="M92 94h95M713 94h95M92 1106h95M713 1106h95" stroke="#b94a45" stroke-width="5"/>
<text x="92" y="139" fill="#b94a45" font-size="18" font-family="monospace" letter-spacing="4">ARCANA MUNDI · CONTAINMENT ARCHIVE</text>
<text x="92" y="1026" fill="#87936f" font-size="42" font-family="Georgia,serif" letter-spacing="3">SCP-682</text>
<text x="92" y="1070" fill="#818992" font-size="15" font-family="monospace" letter-spacing="3">PLATE SCP-682 · MYTH ATLAS EDITORIAL</text>
<text x="808" y="139" text-anchor="end" fill="#818992" font-size="15" font-family="monospace">CC BY-SA 3.0</text>
</svg>