<svg xmlns="http://www.w3.org/2000/svg" width="900" height="1200" viewBox="0 0 900 1200" role="img" aria-labelledby="title desc">
<title id="title">SHOGGOTH</title><desc id="desc">Original abstract editorial plate for Myth Atlas</desc>
<defs><filter id="grain"><feTurbulence baseFrequency=".74" numOctaves="4" seed="136" type="fractalNoise"/><feColorMatrix type="saturate" values="0"/><feComponentTransfer><feFuncA type="table" tableValues="0 .16"/></feComponentTransfer></filter><radialGradient id="halo"><stop offset="0" stop-color="#71836d" stop-opacity=".17"/><stop offset="1" stop-color="#71836d" stop-opacity="0"/></radialGradient></defs>
<rect width="900" height="1200" fill="#090b0e"/><rect x="36" y="36" width="828" height="1128" rx="2" fill="#101419" stroke="#394049" stroke-width="2"/><rect x="55" y="55" width="790" height="1090" fill="none" stroke="#71836d" stroke-opacity=".28"/><rect width="900" height="1200" filter="url(#grain)" opacity=".75"/><circle cx="450" cy="500" r="370" fill="url(#halo)"/>
<g opacity=".22" stroke="#71836d" fill="none"><circle cx="450" cy="500" r="300"/><circle cx="450" cy="500" r="248"/><path d="M128 500h644M450 178v644" stroke-dasharray="5 12"/></g>
<g><path d="M284 589c-37-130 30-270 166-270 141 0 210 139 166 270-28 84-103 108-166 73-63 35-138 11-166-73Z" stroke="#71836d" stroke-width="8" stroke-linecap="round" stroke-linejoin="round" fill="none"/><g fill="#71836d"><circle cx="367" cy="467" r="23"/><circle cx="467" cy="403" r="17"/><circle cx="535" cy="493" r="30"/><circle cx="411" cy="578" r="14"/></g><path d="M318 620c-38 61-15 104 26 81 30-17 36-61 12-100M579 611c47 49 35 98-9 86-35-10-50-50-34-96" stroke="#71836d" stroke-width="8" stroke-linecap="round" stroke-linejoin="round" fill="none"/></g>
<path d="M92 94h95M713 94h95M92 1106h95M713 1106h95" stroke="#c3a567" stroke-width="5"/>
<text x="92" y="139" fill="#c3a567" font-size="18" font-family="monospace" letter-spacing="4">ARCANA MUNDI · THE MODERN MYTHIC AGE</text>
<text x="92" y="1026" fill="#71836d" font-size="42" font-family="Georgia,serif" letter-spacing="3">SHOGGOTH</text>
<text x="92" y="1070" fill="#818992" font-size="15" font-family="monospace" letter-spacing="3">PLATE SHOGGOTH · MYTH ATLAS EDITORIAL</text>
<text x="808" y="139" text-anchor="end" fill="#818992" font-size="15" font-family="monospace">CC BY 4.0</text>
</svg>