<svg xmlns="http://www.w3.org/2000/svg" width="900" height="1200" viewBox="0 0 900 1200" role="img" aria-labelledby="title desc">
<title id="title">YIG</title><desc id="desc">Original abstract editorial plate for Myth Atlas</desc>
<defs><filter id="grain"><feTurbulence baseFrequency=".74" numOctaves="4" seed="51" type="fractalNoise"/><feColorMatrix type="saturate" values="0"/><feComponentTransfer><feFuncA type="table" tableValues="0 .16"/></feComponentTransfer></filter><radialGradient id="halo"><stop offset="0" stop-color="#9e744c" stop-opacity=".17"/><stop offset="1" stop-color="#9e744c" stop-opacity="0"/></radialGradient></defs>
<rect width="900" height="1200" fill="#090b0e"/><rect x="36" y="36" width="828" height="1128" rx="2" fill="#101419" stroke="#394049" stroke-width="2"/><rect x="55" y="55" width="790" height="1090" fill="none" stroke="#9e744c" stroke-opacity=".28"/><rect width="900" height="1200" filter="url(#grain)" opacity=".75"/><circle cx="450" cy="500" r="370" fill="url(#halo)"/>
<g opacity=".22" stroke="#9e744c" fill="none"><circle cx="450" cy="500" r="300"/><circle cx="450" cy="500" r="248"/><path d="M128 500h644M450 178v644" stroke-dasharray="5 12"/></g>
<g><path d="M298 660c265 72 365-33 275-118-71-67-226 5-198 87 33 96 244 9 203-161-35-146-255-146-257-18-1 88 133 111 179 35 46-75-3-178-91-161-64 13-75 98-22 129" stroke="#9e744c" stroke-width="8" stroke-linecap="round" stroke-linejoin="round" fill="none"/><path d="M378 328l39-73 66 53-72 35" stroke="#9e744c" stroke-width="8" stroke-linecap="round" stroke-linejoin="round" fill="none"/><circle cx="429" cy="300" r="8" fill="#9e744c"/></g>
<path d="M92 94h95M713 94h95M92 1106h95M713 1106h95" stroke="#c3a567" stroke-width="5"/>
<text x="92" y="139" fill="#c3a567" font-size="18" font-family="monospace" letter-spacing="4">ARCANA MUNDI · THE MODERN MYTHIC AGE</text>
<text x="92" y="1026" fill="#9e744c" font-size="42" font-family="Georgia,serif" letter-spacing="3">YIG</text>
<text x="92" y="1070" fill="#818992" font-size="15" font-family="monospace" letter-spacing="3">PLATE YIG · MYTH ATLAS EDITORIAL</text>
<text x="808" y="139" text-anchor="end" fill="#818992" font-size="15" font-family="monospace">CC BY 4.0</text>
</svg>